<svg width="23" height="23" viewBox="0 0 23 23" fill="none" xmlns="http://www.w3.org/2000/svg">
<g opacity="0.2">
<path d="M18.0611 8.56389C18.0611 9.92125 17.6586 11.1663 16.9659 12.2054C15.9549 13.7031 14.3541 14.7609 12.4913 15.0324C12.173 15.0886 11.8453 15.1167 11.5083 15.1167C11.1713 15.1167 10.8437 15.0886 10.5254 15.0324C8.66257 14.7609 7.06182 13.7031 6.05082 12.2054C5.35809 11.1663 4.95557 9.92125 4.95557 8.56389C4.95557 4.94114 7.88559 2.01111 11.5083 2.01111C15.1311 2.01111 18.0611 4.94114 18.0611 8.56389Z" stroke="currentColor" stroke-width="1.40417" stroke-linecap="round" stroke-linejoin="round"/>
<path d="M20.1673 17.4289L18.6228 17.7939C18.2764 17.8782 18.0049 18.1403 17.93 18.4867L17.6024 19.8628C17.4245 20.6116 16.4697 20.8363 15.9736 20.2466L11.5083 15.1167L7.04306 20.2559C6.54692 20.8457 5.59209 20.621 5.41423 19.8721L5.08659 18.496C5.00234 18.1496 4.73087 17.8782 4.39387 17.8033L2.84928 17.4382C2.13784 17.2697 1.88509 16.3804 2.39995 15.8655L6.05078 12.2147C7.06178 13.7125 8.66253 14.7703 10.5254 15.0418C10.8437 15.098 11.1713 15.126 11.5083 15.126C11.8453 15.126 12.173 15.098 12.4912 15.0418C14.3541 14.7703 15.9548 13.7125 16.9658 12.2147L20.6167 15.8655C21.1315 16.371 20.8788 17.2604 20.1673 17.4289Z" stroke="currentColor" stroke-width="1.40417" stroke-linecap="round" stroke-linejoin="round"/>
<path d="M12.0513 5.73683L12.6036 6.84144C12.6784 6.99121 12.875 7.141 13.0529 7.16908L14.0545 7.33757C14.6911 7.44055 14.8409 7.90861 14.3822 8.3673L13.6052 9.14426C13.4741 9.27532 13.3993 9.52808 13.4461 9.7153L13.6707 10.6795C13.8486 11.4377 13.4461 11.7373 12.7721 11.3348L11.8359 10.7825C11.6674 10.6795 11.3866 10.6795 11.2181 10.7825L10.282 11.3348C9.608 11.7279 9.20548 11.4377 9.38334 10.6795L9.60801 9.7153C9.64545 9.53744 9.57992 9.27532 9.44887 9.14426L8.67189 8.3673C8.2132 7.90861 8.36298 7.44991 8.99953 7.33757L10.0012 7.16908C10.1697 7.141 10.3663 6.99121 10.4411 6.84144L10.9934 5.73683C11.2649 5.13772 11.7517 5.13772 12.0513 5.73683Z" stroke="currentColor" stroke-width="1.40417" stroke-linecap="round" stroke-linejoin="round"/>
</g>
</svg>
