<svg width="23" height="24" viewBox="0 0 23 24" fill="none" xmlns="http://www.w3.org/2000/svg">
<g opacity="0.2">
<path d="M17.1063 10.8951V14.6395C17.1063 14.8829 17.0969 15.1169 17.0688 15.3416C16.8535 17.8691 15.3651 19.1235 12.6223 19.1235H12.2479C12.0138 19.1235 11.7892 19.2358 11.6487 19.423L10.5254 20.9208C10.0293 21.5855 9.22422 21.5855 8.72808 20.9208L7.60473 19.423C7.48304 19.2639 7.21158 19.1235 7.00564 19.1235H6.6312C3.645 19.1235 2.14722 18.384 2.14722 14.6395V10.8951C2.14722 8.15227 3.41097 6.66386 5.92911 6.44855C6.15378 6.42047 6.38781 6.4111 6.6312 6.4111H12.6223C15.6085 6.4111 17.1063 7.90889 17.1063 10.8951Z" stroke="currentColor" stroke-width="1.40417" stroke-miterlimit="10" stroke-linecap="round" stroke-linejoin="round"/>
<path d="M20.8508 7.15064V10.8951C20.8508 13.6472 19.5871 15.1263 17.0689 15.3416C17.097 15.1169 17.1064 14.8829 17.1064 14.6395V10.8951C17.1064 7.90889 15.6086 6.4111 12.6224 6.4111H6.63128C6.38789 6.4111 6.15387 6.42047 5.9292 6.44855C6.1445 3.93041 7.63292 2.66666 10.3757 2.66666H16.3668C19.353 2.66666 20.8508 4.16444 20.8508 7.15064Z" stroke="currentColor" stroke-width="1.40417" stroke-miterlimit="10" stroke-linecap="round" stroke-linejoin="round"/>
<path d="M12.9083 13.1979H12.9167" stroke="currentColor" stroke-width="1.87222" stroke-linecap="round" stroke-linejoin="round"/>
<path d="M9.63193 13.1979H9.64036" stroke="currentColor" stroke-width="1.87222" stroke-linecap="round" stroke-linejoin="round"/>
<path d="M6.35557 13.1979H6.36399" stroke="currentColor" stroke-width="1.87222" stroke-linecap="round" stroke-linejoin="round"/>
</g>
</svg>
