<svg width="24" height="23" viewBox="0 0 24 23" fill="none" xmlns="http://www.w3.org/2000/svg">
<path d="M11.8167 6.1619V9.27915" stroke="currentColor" stroke-width="1.40417" stroke-miterlimit="10" stroke-linecap="round"/>
<path d="M11.8352 2.00555C8.3903 2.00555 5.60069 4.79516 5.60069 8.24005V10.2059C5.60069 10.8424 5.33858 11.7973 5.01094 12.3402L3.82208 14.3248C3.09191 15.5511 3.59741 16.9178 4.94541 17.3671C9.42002 18.8556 14.2597 18.8556 18.7343 17.3671C19.9981 16.9459 20.541 15.4668 19.8577 14.3248L18.6688 12.3402C18.3412 11.7973 18.079 10.8331 18.079 10.2059V8.24005C18.0697 4.81389 15.2614 2.00555 11.8352 2.00555Z" stroke="currentColor" stroke-width="1.40417" stroke-miterlimit="10" stroke-linecap="round"/>
<path d="M14.9337 17.7509C14.9337 19.464 13.5296 20.8682 11.8165 20.8682C10.9646 20.8682 10.1783 20.5125 9.61661 19.9508C9.05494 19.3891 8.69922 18.6028 8.69922 17.7509" stroke="currentColor" stroke-width="1.40417" stroke-miterlimit="10"/>
</svg>
