<svg width="23" height="23" viewBox="0 0 23 23" fill="none" xmlns="http://www.w3.org/2000/svg">
<g opacity="0.2">
<path d="M11.5084 14.4917C13.0594 14.4917 14.3167 13.2343 14.3167 11.6833C14.3167 10.1323 13.0594 8.87501 11.5084 8.87501C9.95741 8.87501 8.70007 10.1323 8.70007 11.6833C8.70007 13.2343 9.95741 14.4917 11.5084 14.4917Z" stroke="currentColor" stroke-width="1.40417" stroke-miterlimit="10" stroke-linecap="round" stroke-linejoin="round"/>
<path d="M2.14722 12.5071V10.8596C2.14722 9.88601 2.94291 9.08096 3.92583 9.08096C5.62019 9.08096 6.31291 7.88273 5.46105 6.41304C4.97427 5.57054 5.26447 4.47529 6.11633 3.98851L7.7358 3.06176C8.47533 2.62179 9.43016 2.8839 9.87013 3.62343L9.97311 3.80129C10.8156 5.27098 12.201 5.27098 13.0529 3.80129L13.1559 3.62343C13.5959 2.8839 14.5507 2.62179 15.2902 3.06176L16.9097 3.98851C17.7616 4.47529 18.0517 5.57054 17.565 6.41304C16.7131 7.88273 17.4058 9.08096 19.1002 9.08096C20.0737 9.08096 20.8788 9.87665 20.8788 10.8596V12.5071C20.8788 13.4807 20.0831 14.2857 19.1002 14.2857C17.4058 14.2857 16.7131 15.484 17.565 16.9537C18.0517 17.8055 17.7616 18.8914 16.9097 19.3782L15.2902 20.3049C14.5507 20.7449 13.5959 20.4828 13.1559 19.7433L13.0529 19.5654C12.2104 18.0957 10.825 18.0957 9.97311 19.5654L9.87013 19.7433C9.43016 20.4828 8.47533 20.7449 7.7358 20.3049L6.11633 19.3782C5.26447 18.8914 4.97427 17.7962 5.46105 16.9537C6.31291 15.484 5.62019 14.2857 3.92583 14.2857C2.94291 14.2857 2.14722 13.4807 2.14722 12.5071Z" stroke="currentColor" stroke-width="1.40417" stroke-miterlimit="10" stroke-linecap="round" stroke-linejoin="round"/>
</g>
</svg>
